<svg xmlns="http://www.w3.org/2000/svg" viewBox="0 0 512 512">
  <rect width="512" height="512" rx="112" fill="#1a1410"/>
  <rect x="20" y="20" width="472" height="472" rx="94" fill="none" stroke="#d4a017" stroke-width="14" opacity="0.55"/>
  <!-- 김 -->
  <g stroke="#d4a017" stroke-width="14" stroke-linecap="round" fill="none" opacity="0.85">
    <path d="M196 120 q-22 -26 0 -52"/>
    <path d="M256 120 q-22 -26 0 -52"/>
    <path d="M316 120 q-22 -26 0 -52"/>
  </g>
  <!-- 컵 -->
  <path d="M150 196 h212 v40 a106 106 0 0 1 -106 106 a106 106 0 0 1 -106 -106 z" fill="#f3ece4"/>
  <!-- 손잡이 -->
  <path d="M362 214 a52 52 0 0 1 0 104" fill="none" stroke="#f3ece4" stroke-width="26"/>
  <!-- 커피 -->
  <ellipse cx="256" cy="236" rx="100" ry="22" fill="#6f4a2a"/>
  <!-- 받침 -->
  <rect x="132" y="372" width="248" height="26" rx="13" fill="#d4a017"/>
</svg>
